HIERARCHY
ROOT Hips
{
  OFFSET 1.44925e-005 102.336 -0.101585
  CHANNELS 6 Xposition Yposition Zposition Zrotation Xrotation Yrotation
  JOINT LeftUpLeg
  {
    OFFSET 8.9458 -8.66707 0.101652
    CHANNELS 3 Zrotation Xrotation Yrotation
    JOINT LeftLeg
    {
      OFFSET 0 -44.4227 1.3727
      CHANNELS 3 Zrotation Xrotation Yrotation
      JOINT LeftFoot
      {
        OFFSET -0.253549 -42.0924 -1.46059
        CHANNELS 3 Zrotation Xrotation Yrotation
        JOINT LeftToes
        {
          OFFSET -0.04 -4.41509 8.4991
          CHANNELS 3 Zrotation Xrotation Yrotation
          End Site
          {
            OFFSET 0.08 -0.047448 9.77979
          }
        }
      }
    }
  }
  JOINT Spine
  {
    OFFSET 0 11.8905 0
    CHANNELS 3 Zrotation Xrotation Yrotation
    JOINT Spine1
    {
      OFFSET 0 25.6574 0.127663
      CHANNELS 3 Zrotation Xrotation Yrotation
      JOINT RightShoulder
      {
        OFFSET -8.99 -0.362252 -0.22
        CHANNELS 3 Zrotation Xrotation Yrotation
        JOINT RightArm
        {
          OFFSET -10.2827 -0.00338 0.322123
          CHANNELS 3 Zrotation Xrotation Yrotation
          JOINT RightForeArm
          {
            OFFSET -26.364 0.099144 -1.42434
            CHANNELS 3 Zrotation Xrotation Yrotation
            JOINT RightHand
            {
              OFFSET -22.0324 0.085362 1.02216
              CHANNELS 3 Zrotation Xrotation Yrotation
              End Site
              {
                OFFSET -13.3284 -0.6 1.50291
              }
            }
          }
        }
      }
      JOINT LeftShoulder1
      {
        OFFSET 8.99 -0.362252 -0.22
        CHANNELS 3 Zrotation Xrotation Yrotation
        JOINT LeftArm
        {
          OFFSET 10.2827 -0.00337999 0.322123
          CHANNELS 3 Zrotation Xrotation Yrotation
          JOINT LeftForeArm
          {
            OFFSET 26.2597 0.099144 -1.42434
            CHANNELS 3 Zrotation Xrotation Yrotation
            JOINT LeftHand
            {
              OFFSET 22.0902 0.085362 1.02216
              CHANNELS 3 Zrotation Xrotation Yrotation
              End Site
              {
                OFFSET 13.419 -0.6 1.50291
              }
            }
          }
        }
      }
      JOINT Head
      {
        OFFSET 0 8.73416 0.011341
        CHANNELS 3 Zrotation Xrotation Yrotation
        End Site
        {
          OFFSET -0.29 12.7742 2.51395
        }
      }
    }
  }
  JOINT RightUpLeg
  {
    OFFSET -8.9458 -8.66707 0.101652
    CHANNELS 3 Zrotation Xrotation Yrotation
    JOINT RightLeg
    {
      OFFSET 0 -44.4227 1.3727
      CHANNELS 3 Zrotation Xrotation Yrotation
      JOINT RightFoot
      {
        OFFSET 0.253549 -42.0924 -1.46059
        CHANNELS 3 Zrotation Xrotation Yrotation
        JOINT RightToes
        {
          OFFSET 0.04 -4.41509 8.4991
          CHANNELS 3 Zrotation Xrotation Yrotation
          End Site
          {
            OFFSET -0.08 -0.137448 9.77979
          }
        }
      }
    }
  }
}
MOTION
Frames:	8
Frame Time:	0.0333333
1.58622 101.056 -6.18298 -4.13985 -0.753704 -88.0614 0.943317 -15.6773 0.763428 1.27667 37.2385 21.4982 -8.88193 -10.5743 -0.180709 -1.32433e-009 8.75231e-006 -1.46503e-008 6.05849 13.6502 -0.134026 -4.30258 -2.89641 1.4015 34.9892 1.72008 0.155111 42.3459 -11.0678 20.3636 7.74613 36.9824 9.89112 -7.85748 9.54699 0.320561 -44.4045 3.54132 -3.43074 -25.8133 -14.9033 8.96876 -6.40626 39.6606 -11.5336 5.82328 9.61819 -0.917488 -0.598926 -16.7731 -8.37009 0.268539 1.02306 -7.01705 3.50282 15.6744 -15.3236 2.25777 -17.1993 -0.043377 0.0462048 0.000530889 0.662642 
3.40511 101.023 -6.06351 -3.96037 -0.666713 -88.1217 0.531956 -13.6889 -0.497764 1.35153 41.6178 21.2299 -8.80006 -12.5715 -0.323953 -1.32433e-009 8.75231e-006 -1.46503e-008 6.29753 13.2691 -0.38904 -3.84554 -3.0089 1.18834 35.2693 1.72819 0.149334 41.8731 -12.8081 17.4423 8.89642 40.1542 7.68699 -7.78168 9.56606 0.058105 -44.4858 3.56768 -3.47007 -25.9736 -15.051 7.54731 -5.97893 39.0269 -12.1143 5.82328 9.61819 -0.917488 -0.784671 -16.6229 -7.7386 0.0744813 -0.689096 -7.13595 3.70974 16.3382 -15.2364 1.94714 -16.5247 -0.0771041 0.0462048 0.000530889 0.662642 
5.22139 101.002 -5.89332 -3.80517 -0.460824 -88.207 0.338877 -11.209 -1.218 1.41398 44.7218 20.9437 -9.20541 -14.0639 -0.454442 -1.32433e-009 8.75231e-006 -1.46503e-008 6.21168 12.7843 -0.640608 -2.99326 -2.90085 0.882044 35.4905 1.7348 0.146242 41.3573 -15.1837 14.5061 10.1923 43.1241 5.17532 -7.61362 9.59759 -0.355528 -44.4714 3.57565 -3.48777 -26.5306 -15.8807 5.892 -5.58022 38.4562 -12.5688 5.82328 9.61819 -0.917488 -0.754556 -16.4794 -6.93287 0.0492244 -2.28084 -7.04167 3.8327 16.7582 -15.2803 1.64309 -15.683 -0.108088 0.0462048 0.000530889 0.662642 
7.05568 100.987 -5.67843 -3.84254 -0.124827 -88.1595 0.313091 -8.15163 -1.72765 1.46516 46.5045 21.0645 -9.19408 -15.5522 -0.56713 -1.32433e-009 8.75231e-006 -1.46503e-008 5.90993 12.4524 -1.03558 -1.84328 -2.70194 0.363229 35.7041 1.74092 0.145142 40.6859 -17.7235 11.594 11.4047 45.5915 2.66258 -7.47878 9.63121 -0.850799 -44.4065 3.57315 -3.49266 -27.3943 -16.0247 4.0214 -5.17762 37.6726 -13.1537 5.82328 9.61819 -0.917488 -0.52194 -16.3709 -6.0305 0.17988 -3.53263 -6.83146 3.92589 16.8829 -15.4623 1.55519 -14.5772 -0.122457 0.0462048 0.000530889 0.662642 
8.92658 100.973 -5.42477 -3.99479 0.143565 -88.1455 0.228199 -4.67062 -2.09429 1.49311 46.8151 21.5417 -8.86507 -16.6417 -0.625396 -1.32433e-009 8.75231e-006 -1.46503e-008 5.28074 12.2777 -1.44152 -0.633062 -2.54331 -0.229768 35.8594 1.74675 0.144939 39.7589 -19.532 8.42873 12.0134 46.8875 1.12768 -7.44292 9.65725 -1.29541 -44.2387 3.55593 -3.48418 -28.3714 -14.8155 1.91619 -4.7213 36.8914 -13.948 5.82328 9.61819 -0.917488 -0.170177 -16.24 -5.18834 0.249444 -4.55292 -6.60879 3.98921 16.7495 -15.6624 1.53201 -13.3114 -0.132537 0.0462048 0.000530889 0.662642 
10.8561 100.946 -5.12417 -4.06583 0.250444 -88.2906 0.00209341 -1.20309 -2.271 1.48085 45.8332 21.8162 -9.13158 -17.2236 -0.691558 -1.32433e-009 8.75231e-006 -1.46503e-008 4.35018 12.0796 -1.76354 0.45053 -2.43347 -0.793498 35.9033 1.75004 0.145057 38.6857 -20.159 4.97518 11.9051 46.779 1.10895 -7.2779 9.67899 -1.59004 -43.9527 3.52284 -3.46215 -29.236 -12.1526 -0.269686 -3.97405 35.5872 -15.2663 5.82328 9.61819 -0.917488 0.274456 -16.1134 -4.41851 0.162321 -5.65092 -6.38163 4.00632 16.4891 -15.8624 1.36926 -12.0574 -0.147594 0.0462048 0.000530889 0.662642 
12.8933 100.859 -4.75148 -4.00097 0.418392 -88.4299 -0.119586 1.91026 -2.28304 1.4255 44.0029 21.5897 -9.84104 -17.9979 -0.816692 -1.32433e-009 8.75231e-006 -1.46503e-008 3.55776 11.8155 -2.11957 1.32572 -2.32816 -1.38111 35.8824 1.75108 0.144712 37.6731 -19.4199 1.52459 11.3641 45.4271 2.33868 -6.84356 9.70139 -1.75118 -43.6685 3.493 -3.44595 -29.707 -8.37778 -2.33001 -2.80336 33.0668 -17.3225 5.82328 9.61819 -0.917488 0.795971 -16.0593 -3.70176 0.11938 -7.03001 -6.0679 4.00342 16.2923 -16.205 1.08621 -10.8261 -0.162319 0.0462048 0.000530889 0.662642 
15.0747 100.674 -4.30255 -3.85817 0.822191 -88.4637 0.0595086 4.60706 -2.09335 1.34429 41.4429 21.0178 -9.96276 -19.0196 -0.913907 -1.32433e-009 8.75231e-006 -1.46503e-008 3.14761 11.5447 -2.54661 2.03098 -2.18309 -2.00202 35.8233 1.75113 0.146688 37.0066 -17.233 -1.65847 10.5241 43.0979 4.40238 -6.42212 9.71676 -1.79582 -43.484 3.48198 -3.4519 -29.7019 -4.66182 -4.22684 -1.36664 29.9053 -19.8679 5.82328 9.61819 -0.917488 1.27279 -16.1024 -3.09944 0.278102 -8.66964 -5.61905 4.03267 16.2237 -16.7485 0.764213 -9.44055 -0.171487 0.0462048 0.000530889 0.662642 
